<svg xmlns="http://www.w3.org/2000/svg" width="512" height="512" viewBox="0 0 512 512" fill="none">
  <defs>
    <linearGradient id="bg" x1="68" y1="62" x2="430" y2="420" gradientUnits="userSpaceOnUse">
      <stop offset="0" stop-color="#46C0FF"/>
      <stop offset="1" stop-color="#08B9C6"/>
    </linearGradient>
    <linearGradient id="wing1" x1="118" y1="152" x2="338" y2="218" gradientUnits="userSpaceOnUse">
      <stop offset="0" stop-color="#A7E6FF"/>
      <stop offset="1" stop-color="#4AB9FF"/>
    </linearGradient>
    <linearGradient id="wing2" x1="183" y1="185" x2="325" y2="362" gradientUnits="userSpaceOnUse">
      <stop offset="0" stop-color="#23B4FF"/>
      <stop offset="1" stop-color="#067FF0"/>
    </linearGradient>
    <linearGradient id="wing3" x1="228" y1="228" x2="334" y2="274" gradientUnits="userSpaceOnUse">
      <stop offset="0" stop-color="#148CF5"/>
      <stop offset="1" stop-color="#005FE8"/>
    </linearGradient>
  </defs>
  <rect x="36" y="36" width="440" height="440" rx="120" fill="url(#bg)"/>
  <g transform="translate(56 88)">
    <path d="M38 109H206C227 109 245 105 261 96L290 80C299 75 296 63 287 63H254C240 63 228 59 216 50L198 35C181 23 160 17 136 17H28C14 17 8 34 18 44L75 95C92 109 113 116 136 116H38V109Z" fill="url(#wing1)"/>
    <path d="M199 17C214 22 224 33 228 49C233 71 227 97 209 119L125 209C117 219 123 233 136 233H178C195 233 211 225 220 211L270 126C278 114 282 100 282 86V69C282 39 257 17 227 17H199Z" fill="url(#wing2)"/>
    <path d="M217 153C194 156 171 161 149 167L191 169C218 171 244 179 267 196L273 177C276 170 276 161 274 154L271 144C253 148 235 151 217 153Z" fill="url(#wing3)"/>
    <path d="M256 63H322C330 63 333 74 326 79L296 100C285 107 272 109 257 109H238C247 100 253 83 256 63Z" fill="#2AAEFF"/>
  </g>
</svg>